<svg width="24" height="24" viewBox="0 0 24 24" fill="none" xmlns="http://www.w3.org/2000/svg">
<g id="material-symbols:phone-in-talk">
<path id="Vector" d="M19 11.9502C19 10.0002 18.3207 8.34586 16.962 6.9872C15.604 5.62919 13.95 4.9502 12 4.9502V2.9502C13.25 2.9502 14.421 3.18753 15.513 3.6622C16.6043 4.13753 17.5543 4.77953 18.363 5.5882C19.171 6.3962 19.8127 7.3462 20.288 8.4382C20.7627 9.52953 21 10.7002 21 11.9502H19ZM15 11.9502C15 11.1169 14.7083 10.4085 14.125 9.8252C13.5417 9.24186 12.8333 8.9502 12 8.9502V6.9502C13.3833 6.9502 14.5627 7.43753 15.538 8.4122C16.5127 9.38753 17 10.5669 17 11.9502H15ZM19.95 21.0002C17.8 21.0002 15.7043 20.5209 13.663 19.5622C11.621 18.6042 9.81267 17.3375 8.238 15.7622C6.66267 14.1875 5.396 12.3792 4.438 10.3372C3.47933 8.29586 3 6.2002 3 4.0502C3 3.7502 3.1 3.5002 3.3 3.3002C3.5 3.1002 3.75 3.0002 4.05 3.0002H8.1C8.33333 3.0002 8.54167 3.0752 8.725 3.2252C8.90833 3.3752 9.01667 3.56686 9.05 3.8002L9.7 7.3002C9.73333 7.53353 9.72933 7.74586 9.688 7.93719C9.646 8.12919 9.55 8.3002 9.4 8.4502L7 10.9002C7.7 12.1002 8.575 13.2252 9.625 14.2752C10.675 15.3252 11.8333 16.2335 13.1 17.0002L15.45 14.6502C15.6 14.5002 15.796 14.3875 16.038 14.3122C16.2793 14.2375 16.5167 14.2169 16.75 14.2502L20.2 14.9502C20.4333 15.0002 20.625 15.1125 20.775 15.2872C20.925 15.4625 21 15.6669 21 15.9002V19.9502C21 20.2502 20.9 20.5002 20.7 20.7002C20.5 20.9002 20.25 21.0002 19.95 21.0002Z" fill="white"/>
</g>
</svg>
